<?xml version="1.0" encoding="UTF-8"?>
<svg width="88px" height="56px" viewBox="0 0 88 56" version="1.1" xmlns="http://www.w3.org/2000/svg" xmlns:xlink="http://www.w3.org/1999/xlink">
    <!-- Generator: Sketch 52.2 (67145) - http://www.bohemiancoding.com/sketch -->
    <title>SNGH SPTR.</title>
    <desc>Created with Sketch.</desc>
    <g id="Page-1" stroke="none" stroke-width="1" fill="none" fill-rule="evenodd">
        <g id="Portofolio" transform="translate(-137.000000, -5724.000000)" fill="#FFFFFF" stroke="#FFFFFF" stroke-width="2">
            <g id="Footer" transform="translate(-81.000000, 5594.000000)">
                <path d="M230.420059,134.020117 C229.025743,133.547018 227.703375,133.310472 226.452917,133.310472 C225.036468,133.310472 223.882855,133.632284 222.992041,134.275919 C222.101228,134.919554 221.655828,135.835482 221.655828,137.02373 C221.655828,138.432025 222.823274,139.669765 225.158201,140.736989 C226.884497,141.529155 228.027045,142.079261 228.585878,142.387326 C229.144712,142.69539 229.711836,143.118973 230.287268,143.658085 C230.8627,144.197198 231.324699,144.832572 231.673278,145.564225 C232.021857,146.295878 232.196144,147.118288 232.196144,148.031479 C232.196144,150.297953 231.429835,152.055544 229.897193,153.304306 C228.364552,154.553067 226.558054,155.177438 224.477645,155.177438 C222.463632,155.177438 220.698631,154.781361 219.182588,153.989196 L219.746952,151.66222 C221.528578,152.465388 223.083329,152.866966 224.411249,152.866966 C225.96049,152.866966 227.20263,152.468139 228.137707,151.670472 C229.072785,150.872805 229.540317,149.775342 229.540317,148.378049 C229.540317,147.343833 229.236006,146.466413 228.627376,145.745762 C228.018745,145.025111 226.895563,144.290718 225.257794,143.542562 C223.575762,142.772401 222.488543,142.247049 221.996106,141.96649 C221.503669,141.685931 221.014005,141.298106 220.527101,140.803002 C220.040197,140.307899 219.663958,139.752291 219.398374,139.136162 C219.13279,138.520033 219,137.848903 219,137.122751 C219,135.197348 219.697148,133.695556 221.091464,132.61733 C222.485781,131.539105 224.250782,131 226.386521,131 C227.946828,131 229.496045,131.236546 231.03422,131.709645 L230.420059,134.020117 Z M251.895161,154.731847 L248.874157,154.731847 L240.475102,136.347092 L240.475102,154.731847 L237.752878,154.731847 L237.752878,131.445591 L240.790481,131.445591 L249.222734,149.665312 L249.222734,131.445591 L251.895161,131.445591 L251.895161,154.731847 Z M271.776766,153.08151 C269.862347,154.478802 267.743239,155.177438 265.419378,155.177438 C262.376227,155.177438 260.069,154.151489 258.497627,152.09956 C256.926254,150.04763 256.14058,147.046797 256.14058,143.096971 C256.14058,139.279172 256.901356,136.308595 258.422932,134.185151 C259.944508,132.061706 262.276633,131 265.419378,131 C266.548111,131 267.66576,131.143028 268.772361,131.429088 C269.878961,131.715147 270.769761,132.094721 271.444788,132.56782 L270.548446,134.696755 C268.988139,133.816571 267.278467,133.376485 265.419378,133.376485 C263.272573,133.376485 261.670793,134.157637 260.61399,135.719964 C259.557186,137.282291 259.028793,139.741269 259.028793,143.096971 C259.028793,149.566324 261.158967,152.800953 265.419378,152.800953 C267.023949,152.800953 268.235658,152.465388 269.054543,151.794247 L269.054543,146.051074 L264.838416,146.051074 L264.838416,143.707596 L271.776766,143.707596 L271.776766,153.08151 Z M290.363655,154.731847 L287.641431,154.731847 L287.641431,143.179488 L279.624151,143.179488 L279.624151,154.731847 L276.901928,154.731847 L276.901928,131.445591 L279.624151,131.445591 L279.624151,140.803002 L287.641431,140.803002 L287.641431,131.445591 L290.363655,131.445591 L290.363655,154.731847 Z M230.420059,163.842679 C229.025743,163.36958 227.703375,163.133034 226.452917,163.133034 C225.036468,163.133034 223.882855,163.454846 222.992041,164.098481 C222.101228,164.742116 221.655828,165.658043 221.655828,166.846292 C221.655828,168.254587 222.823274,169.492327 225.158201,170.559551 C226.884497,171.351716 228.027045,171.901823 228.585878,172.209888 C229.144712,172.517952 229.711836,172.941534 230.287268,173.480647 C230.8627,174.01976 231.324699,174.655133 231.673278,175.386787 C232.021857,176.11844 232.196144,176.940849 232.196144,177.85404 C232.196144,180.120515 231.429835,181.878106 229.897193,183.126867 C228.364552,184.375629 226.558054,185 224.477645,185 C222.463632,185 220.698631,184.603923 219.182588,183.811757 L219.746952,181.484782 C221.528578,182.28795 223.083329,182.689528 224.411249,182.689528 C225.96049,182.689528 227.20263,182.290701 228.137707,181.493034 C229.072785,180.695367 229.540317,179.597904 229.540317,178.200611 C229.540317,177.166395 229.236006,176.288974 228.627376,175.568324 C228.018745,174.847673 226.895563,174.11328 225.257794,173.365124 C223.575762,172.594962 222.488543,172.06961 221.996106,171.789052 C221.503669,171.508493 221.014005,171.120668 220.527101,170.625564 C220.040197,170.13046 219.663958,169.574853 219.398374,168.958724 C219.13279,168.342595 219,167.671464 219,166.945312 C219,165.019909 219.697148,163.518118 221.091464,162.439892 C222.485781,161.361667 224.250782,160.822562 226.386521,160.822562 C227.946828,160.822562 229.496045,161.059108 231.03422,161.532207 L230.420059,163.842679 Z M238.881605,161.268153 L244.82402,161.268153 C247.070419,161.268153 248.868617,161.829262 250.21867,162.951497 C251.568722,164.073731 252.243739,165.619532 252.243739,167.588944 C252.243739,169.569358 251.571489,171.150915 250.226969,172.333663 C248.88245,173.51641 247.120215,174.107775 244.940212,174.107775 L241.603828,174.107775 L241.603828,184.554409 L238.881605,184.554409 L238.881605,161.268153 Z M241.603828,171.747793 L244.558437,171.747793 C247.756512,171.747793 249.355526,170.416535 249.355526,167.753978 C249.355526,166.52172 248.921192,165.526026 248.05251,164.766867 C247.183829,164.007709 246.063413,163.628135 244.691228,163.628135 L241.603828,163.628135 L241.603828,171.747793 Z M272.839097,163.463101 L265.618565,163.463101 L265.618565,184.554409 L262.912941,184.554409 L262.912941,163.463101 L255.659211,163.463101 L255.659211,161.268153 L272.839097,161.268153 L272.839097,163.463101 Z M292.919889,184.554409 L289.51711,184.554409 L282.645155,173.975748 L279.624151,173.975748 L279.624151,184.554409 L276.901928,184.554409 L276.901928,161.268153 L283.524898,161.268153 C285.749165,161.268153 287.505867,161.804507 288.795057,162.877231 C290.084246,163.949956 290.728831,165.443496 290.728831,167.357897 C290.728831,168.777194 290.258533,170.039689 289.317923,171.14542 C288.377312,172.251152 287.082609,173.002047 285.433775,173.39813 L292.919889,184.554409 Z M279.624151,171.615766 L283.060129,171.615766 C284.498709,171.615766 285.666155,171.227941 286.562501,170.452279 C287.458848,169.676616 287.907014,168.700177 287.907014,167.52293 C287.907014,164.926387 286.313533,163.628135 283.126524,163.628135 L279.624151,163.628135 L279.624151,171.615766 Z M302.925135,180.775137 C303.511633,180.775137 304.004063,180.973176 304.402439,181.369258 C304.800815,181.765341 305,182.254936 305,182.838058 C305,183.432183 304.798048,183.941032 304.394139,184.36462 C303.99023,184.788209 303.500567,185 302.925135,185 C302.360768,185 301.879404,184.788209 301.481028,184.36462 C301.082652,183.941032 300.883467,183.432183 300.883467,182.838058 C300.883467,182.243934 301.079886,181.751588 301.472729,181.361007 C301.865572,180.970425 302.349702,180.775137 302.925135,180.775137 Z" id="SNGH-SPTR."></path>
            </g>
        </g>
    </g>
</svg>