<?xml version="1.0" encoding="UTF-8"?>
<svg width="88px" height="56px" viewBox="0 0 88 56" version="1.1" xmlns="http://www.w3.org/2000/svg" xmlns:xlink="http://www.w3.org/1999/xlink">
    <!-- Generator: Sketch 52.2 (67145) - http://www.bohemiancoding.com/sketch -->
    <title>SNGH SPTR.</title>
    <desc>Created with Sketch.</desc>
    <g id="Page-1" stroke="none" stroke-width="1" fill="none" fill-rule="evenodd">
        <g id="Artboard" transform="translate(-142.000000, -27.000000)" fill="#000000" stroke="#000000" stroke-width="2">
            <path d="M154.420059,31.0201169 C153.025743,30.5470179 151.703375,30.3104719 150.452917,30.3104719 C149.036468,30.3104719 147.882855,30.6322844 146.992041,31.2759191 C146.101228,31.9195538 145.655828,32.8354817 145.655828,34.0237303 C145.655828,35.432025 146.823274,36.6697655 149.158201,37.7369888 C150.884497,38.5291545 152.027045,39.0792614 152.585878,39.3873258 C153.144712,39.6953903 153.711836,40.1189726 154.287268,40.6580854 C154.8627,41.1971982 155.324699,41.8325716 155.673278,42.5642247 C156.021857,43.2958778 156.196144,44.1182876 156.196144,45.0314787 C156.196144,47.2979529 155.429835,49.0555443 153.897193,50.3043056 C152.364552,51.5530669 150.558054,52.1774382 148.477645,52.1774382 C146.463632,52.1774382 144.698631,51.7813613 143.182588,50.9891955 L143.746952,48.6622202 C145.528578,49.4653883 147.083329,49.8669663 148.411249,49.8669663 C149.96049,49.8669663 151.20263,49.4681388 152.137707,48.6704719 C153.072785,47.872805 153.540317,46.7753418 153.540317,45.3780494 C153.540317,44.343833 153.236006,43.4664126 152.627376,42.7457618 C152.018745,42.025111 150.895563,41.2907183 149.257794,40.5425618 C147.575762,39.7724006 146.488543,39.2470486 145.996106,38.9664899 C145.503669,38.6859312 145.014005,38.2981058 144.527101,37.8030022 C144.040197,37.3078986 143.663958,36.7522907 143.398374,36.1361618 C143.13279,35.5200329 143,34.8489025 143,34.1227506 C143,32.1973477 143.697148,30.695556 145.091464,29.6173303 C146.485781,28.5391047 148.250782,28 150.386521,28 C151.946828,28 153.496045,28.2365459 155.03422,28.7096449 L154.420059,31.0201169 Z M175.895161,51.7318472 L172.874157,51.7318472 L164.475102,33.3470921 L164.475102,51.7318472 L161.752878,51.7318472 L161.752878,28.445591 L164.790481,28.445591 L173.222734,46.6653124 L173.222734,28.445591 L175.895161,28.445591 L175.895161,51.7318472 Z M195.776766,50.0815101 C193.862347,51.4788025 191.743239,52.1774382 189.419378,52.1774382 C186.376227,52.1774382 184.069,51.1514889 182.497627,49.0995596 C180.926254,47.0476302 180.14058,44.0467973 180.14058,40.0969708 C180.14058,36.2791719 180.901356,33.3085949 182.422932,31.1851506 C183.944508,29.0617062 186.276633,28 189.419378,28 C190.548111,28 191.66576,28.1430278 192.772361,28.4290876 C193.878961,28.7151475 194.769761,29.0947212 195.444788,29.5678202 L194.548446,31.6967551 C192.988139,30.8165709 191.278467,30.3764854 189.419378,30.3764854 C187.272573,30.3764854 185.670793,31.1576371 184.61399,32.719964 C183.557186,34.282291 183.028793,36.7412686 183.028793,40.0969708 C183.028793,46.5663245 185.158967,49.8009528 189.419378,49.8009528 C191.023949,49.8009528 192.235658,49.4653876 193.054543,48.7942472 L193.054543,43.0510742 L188.838416,43.0510742 L188.838416,40.7075955 L195.776766,40.7075955 L195.776766,50.0815101 Z M214.363655,51.7318472 L211.641431,51.7318472 L211.641431,40.1794876 L203.624151,40.1794876 L203.624151,51.7318472 L200.901928,51.7318472 L200.901928,28.445591 L203.624151,28.445591 L203.624151,37.8030022 L211.641431,37.8030022 L211.641431,28.445591 L214.363655,28.445591 L214.363655,51.7318472 Z M154.420059,60.8426787 C153.025743,60.3695797 151.703375,60.1330337 150.452917,60.1330337 C149.036468,60.1330337 147.882855,60.4548462 146.992041,61.0984809 C146.101228,61.7421156 145.655828,62.6580435 145.655828,63.8462921 C145.655828,65.2545868 146.823274,66.4923272 149.158201,67.5595506 C150.884497,68.3517163 152.027045,68.9018232 152.585878,69.2098876 C153.144712,69.5179521 153.711836,69.9415344 154.287268,70.4806472 C154.8627,71.01976 155.324699,71.6551334 155.673278,72.3867865 C156.021857,73.1184396 156.196144,73.9408494 156.196144,74.8540404 C156.196144,77.1205147 155.429835,78.8781061 153.897193,80.1268674 C152.364552,81.3756287 150.558054,82 148.477645,82 C146.463632,82 144.698631,81.6039231 143.182588,80.8117573 L143.746952,78.484782 C145.528578,79.2879501 147.083329,79.6895281 148.411249,79.6895281 C149.96049,79.6895281 151.20263,79.2907006 152.137707,78.4930337 C153.072785,77.6953668 153.540317,76.5979036 153.540317,75.2006112 C153.540317,74.1663948 153.236006,73.2889744 152.627376,72.5683236 C152.018745,71.8476728 150.895563,71.1132801 149.257794,70.3651236 C147.575762,69.5949624 146.488543,69.0696104 145.996106,68.7890517 C145.503669,68.508493 145.014005,68.1206676 144.527101,67.625564 C144.040197,67.1304604 143.663958,66.5748525 143.398374,65.9587236 C143.13279,65.3425947 143,64.6714643 143,63.9453124 C143,62.0199095 143.697148,60.5181178 145.091464,59.4398921 C146.485781,58.3616665 148.250782,57.8225618 150.386521,57.8225618 C151.946828,57.8225618 153.496045,58.0591077 155.03422,58.5322067 L154.420059,60.8426787 Z M162.881605,58.2681528 L168.82402,58.2681528 C171.070419,58.2681528 172.868617,58.8292618 174.21867,59.9514966 C175.568722,61.0737315 176.243739,62.6195317 176.243739,64.5889438 C176.243739,66.5693582 175.571489,68.1509154 174.226969,69.3336629 C172.88245,70.5164104 171.120215,71.1077753 168.940212,71.1077753 L165.603828,71.1077753 L165.603828,81.554409 L162.881605,81.554409 L162.881605,58.2681528 Z M165.603828,68.7477933 L168.558437,68.7477933 C171.756512,68.7477933 173.355526,67.4165347 173.355526,64.7539775 C173.355526,63.5217197 172.921192,62.5260263 172.05251,61.7668674 C171.183829,61.0077086 170.063413,60.6281348 168.691228,60.6281348 L165.603828,60.6281348 L165.603828,68.7477933 Z M196.839097,60.4631011 L189.618565,60.4631011 L189.618565,81.554409 L186.912941,81.554409 L186.912941,60.4631011 L179.659211,60.4631011 L179.659211,58.2681528 L196.839097,58.2681528 L196.839097,60.4631011 Z M216.919889,81.554409 L213.51711,81.554409 L206.645155,70.9757483 L203.624151,70.9757483 L203.624151,81.554409 L200.901928,81.554409 L200.901928,58.2681528 L207.524898,58.2681528 C209.749165,58.2681528 211.505867,58.804507 212.795057,59.8772315 C214.084246,60.9499559 214.728831,62.443496 214.728831,64.3578966 C214.728831,65.7771936 214.258533,67.0396889 213.317923,68.1454202 C212.377312,69.2511516 211.082609,70.0020475 209.433775,70.3981303 L216.919889,81.554409 Z M203.624151,68.6157663 L207.060129,68.6157663 C208.498709,68.6157663 209.666155,68.227941 210.562501,67.4522787 C211.458848,66.6766163 211.907014,65.7001767 211.907014,64.5229303 C211.907014,61.926387 210.313533,60.6281348 207.126524,60.6281348 L203.624151,60.6281348 L203.624151,68.6157663 Z M226.925135,77.7751371 C227.511633,77.7751371 228.004063,77.9731755 228.402439,78.3692584 C228.800815,78.7653413 229,79.2549364 229,79.8380584 C229,80.4321827 228.798048,80.9410316 228.394139,81.3646202 C227.99023,81.7882089 227.500567,82 226.925135,82 C226.360768,82 225.879404,81.7882089 225.481028,81.3646202 C225.082652,80.9410316 224.883467,80.4321827 224.883467,79.8380584 C224.883467,79.2439341 225.079886,78.7515885 225.472729,78.3610067 C225.865572,77.970425 226.349702,77.7751371 226.925135,77.7751371 Z" id="SNGH-SPTR."></path>
        </g>
    </g>
</svg>